<svg width="400" height="238" viewBox="0 0 400 238" fill="none" xmlns="http://www.w3.org/2000/svg">
<path d="M-129.529 184.517L-137 182.654V246H536.282V1L531.613 3.79468L523.209 25.2205L518.54 28.9468L510.136 27.0836L500.797 17.7681L495.194 18.6996L486.79 39.1939L481.187 52.2357H473.717L466.246 40.1255L461.238 39.1939H455.974L445.702 69.0038L442.901 70.8669L438.232 72.73L433.562 66.2091L426.092 27.0836L421.423 22.4259L416.754 24.289L407.416 55.962L401.813 59.6882L391.541 54.0989L385.938 49.4411H378.467L370.997 67.1407L366.328 73.6616L356.989 75.5247L349.519 84.8403L344.85 86.7034L340.181 84.8403L329.909 60.6198L321.504 58.7567L311.232 83.9087L307.497 87.635L301.894 86.7034L290.688 70.8669L282.284 69.9354L275.747 59.6882L271.078 52.2357L266.409 50.3726L262.674 53.1673L253.336 88.5665L250.534 94.1559L246.799 95.0874L242.13 85.7719L232.792 36.3992L229.99 32.673H228.123L223.454 35.4677L215.983 63.4144L212.248 69.0038L204.777 70.8669L195.439 89.4981L192.638 92.2928H187.968L182.366 88.5665L176.763 80.1825L172.094 78.3194L164.623 82.9772L159.954 98.8137L155.285 104.403L150.616 106.266L142.211 101.608L135.675 96.019L129.138 95.0874L126.336 92.2928L118.866 82.0456L114.197 79.2509L109.528 82.0456L102.057 122.103L96.4543 137.008H90.8514L82.4471 126.76L77.778 124.897L70.3074 123.966L63.7707 137.939L57.234 145.392L53.4987 146.323L46.0282 135.144L37.6238 130.487L32.0209 132.35L20.8151 174.27L16.146 176.133L8.67549 168.681L-1.59648 161.228H-6.26558L-11.8685 154.707L-20.2728 151.913L-25.8757 154.707L-33.3463 177.996L-40.8168 182.654L-45.4859 184.517L-52.0226 187.312L-62.2946 189.175L-67.8975 184.517L-74.4343 174.27L-82.8386 172.407L-90.3092 166.817L-96.8459 163.091L-100.581 164.023L-104.316 171.475L-111.787 189.175L-116.456 192.901L-122.059 191.97L-129.529 184.517Z" fill="url(#paint0_linear_93_338)"/>
<path d="M536.283 1C526.664 1 526.664 29.4931 517.046 29.4931C507.428 29.4931 507.829 17.5362 497.809 17.5362C487.79 17.5362 488.592 52.6437 478.573 52.6437C468.554 52.6437 470.157 38.5498 459.336 38.5498C448.516 38.5498 451.321 72.7924 440.1 72.7924C428.878 72.7924 430.481 22.3698 420.863 22.3698C411.245 22.3698 412.046 59.1564 401.626 59.1564C391.206 59.1564 392.809 49.0821 382.39 49.0821C371.97 49.0821 373.573 74.2679 363.153 74.2679C352.733 74.2679 353.935 86.4792 343.916 86.4792C333.897 86.4792 334.699 59.0038 324.68 59.0038C314.661 59.0038 315.863 87.9039 305.443 87.9039C295.023 87.9039 297.428 70.4519 286.206 70.4519C274.985 70.4519 276.989 51.0155 266.97 51.0155C256.951 51.0155 258.153 95.3833 247.733 95.3833C237.313 95.3833 238.916 32.0371 228.496 32.0371C218.077 32.0371 219.279 69.8922 209.26 69.8922C199.241 69.8922 201.245 92.534 190.023 92.534C178.802 92.534 181.607 78.7963 170.787 78.7963C159.966 78.7963 162.771 106.781 151.55 106.781C140.329 106.781 143.134 95.9939 132.313 95.9939C121.493 95.9939 123.496 79.6613 113.077 79.6613C102.657 79.6613 104.26 138.326 93.84 138.326C83.4202 138.326 85.8247 123.978 74.6033 123.978C63.382 123.978 64.985 146.416 55.3667 146.416C45.7484 146.416 46.9507 130.389 36.13 130.389C25.3094 130.389 26.9125 176.69 16.8934 176.69C6.87434 176.69 8.87817 162.749 -2.3432 162.749C-13.5646 162.749 -10.7592 152.624 -21.5798 152.624C-32.4004 152.624 -30.3967 183.661 -40.8165 183.661C-51.2364 183.661 -48.8318 190.174 -60.0531 190.174C-71.2745 190.174 -68.0684 173.027 -79.2898 173.027C-90.5111 173.027 -88.9081 163.868 -98.5264 163.868C-108.145 163.868 -108.145 193.634 -117.763 193.634C-127.381 193.634 -126.58 183.152 -137 183.152" stroke="#BFFB4F" stroke-width="2"/>
<defs>
<linearGradient id="paint0_linear_93_338" x1="199.641" y1="1" x2="199.641" y2="246" gradientUnits="userSpaceOnUse">
<stop stop-color="#BFFB4F" stop-opacity="0.12"/>
<stop offset="1" stop-color="#BFFB4F" stop-opacity="0"/>
</linearGradient>
</defs>
</svg>
