<svg width="1920" height="336" viewBox="0 0 1920 336" fill="none" xmlns="http://www.w3.org/2000/svg">
<path d="M561.173 353.406C562.498 389.057 571.035 415.585 586.782 432.982C602.982 450.393 623.563 459.097 648.518 459.097C669.532 459.097 686.61 454.096 699.745 444.084C713.318 434.071 721.852 420.789 725.354 404.246H802.196C795.631 435.59 778.774 461.712 751.628 482.609C724.483 503.504 690.111 513.955 648.518 513.956C598.167 513.956 558.541 497.625 529.645 464.975C504.584 436.224 490.562 399.037 487.57 353.406H561.173ZM1643.31 353.406C1644.64 389.057 1653.18 415.585 1668.92 432.982C1685.11 450.395 1705.69 459.097 1730.65 459.097C1751.67 459.097 1768.75 454.096 1781.89 444.084C1795.45 434.071 1804 420.789 1807.5 404.246H1884.34C1877.76 435.592 1860.9 461.712 1833.77 482.609C1806.62 503.504 1772.24 513.956 1730.65 513.956C1680.3 513.956 1640.68 497.625 1611.78 464.975C1586.72 436.224 1572.7 399.035 1569.71 353.406H1643.31ZM1235.76 162.631C1280.43 162.631 1314.36 173.517 1337.56 195.285C1361.2 217.053 1373.02 249.487 1373.02 292.587V416.655C1373.02 452.353 1375.87 481.522 1381.56 504.159H1313.92C1311.23 492.351 1309.72 479.039 1309.39 464.23L1309.32 457.791H1308.01C1283.48 493.488 1246.05 511.343 1195.7 511.343C1161.54 511.343 1134.18 502.198 1113.6 483.914C1093.02 465.194 1082.73 441.469 1082.73 412.738C1082.73 384.439 1092.37 361.802 1111.63 344.824C1131.34 327.846 1164.39 315.654 1210.8 308.252C1238.82 303.464 1268.81 300.197 1300.78 298.457V285.403C1300.78 239.692 1279.11 216.829 1235.76 216.829C1215.61 216.829 1199.85 222.055 1188.47 232.503C1177.09 242.95 1170.96 257.104 1170.09 274.953H1096.53C1098.28 241.867 1110.98 214.876 1134.62 193.979C1158.7 173.083 1192.42 162.631 1235.76 162.631ZM1507.86 172.427H1572.88V229.238H1507.86V395.104C1507.86 413.823 1511.35 427.323 1518.36 435.594C1525.36 443.43 1536.96 447.349 1553.17 447.35C1562.8 447.35 1570.46 446.26 1576.15 444.084V502.201C1562.58 506.119 1548.58 508.078 1534.13 508.078C1498.67 508.078 1472.82 500.239 1456.62 484.566C1440.87 468.46 1432.98 442.338 1432.98 406.206V229.238H1377.16V172.427H1432.98V89.4946H1507.86V172.427ZM905.726 307.598C920.177 351.569 934.407 399.898 948.417 452.573H949.729C963.736 399.898 977.975 351.569 992.426 307.598L1035.76 172.427H1113.92L997.68 504.159H900.472L784.228 172.427H862.389L905.726 307.598ZM1300.78 346.784C1272.32 348.524 1246.7 351.356 1223.94 355.274C1199.85 359.191 1182.78 365.071 1172.72 372.907C1163.09 380.743 1158.27 392.276 1158.27 407.511C1158.27 422.314 1163.3 434.288 1173.37 443.432C1183.88 452.137 1198.54 456.492 1217.38 456.492C1242.76 456.492 1262.9 449.088 1277.8 434.288C1286.54 425.146 1292.45 415.566 1295.53 405.554C1299.02 395.104 1300.78 380.959 1300.78 363.11V346.784ZM647.199 162.631C684.854 162.631 716.816 172.865 743.087 193.326C769.795 213.351 787.749 240.779 796.942 275.605C803.074 295.196 806.131 321.1 806.131 353.314H562.508V304.333H731.266C728.638 276.037 719.661 254.488 704.336 239.687C689.45 224.887 670.404 217.483 647.199 217.483C623.995 217.483 604.73 224.886 589.407 239.687C574.522 254.486 565.542 276.033 562.476 304.327H488.812C493.497 267.602 507.099 236.482 529.645 210.959C558.541 178.744 597.724 162.632 647.199 162.631ZM1732.86 162.662C1768.99 163.281 1799.77 173.504 1825.24 193.326C1851.93 213.351 1869.9 240.779 1879.08 275.605C1885.21 295.196 1888.28 321.099 1888.28 353.314H1644.62V304.327H1570.95C1575.63 267.604 1589.23 236.48 1611.78 210.959C1640.68 178.744 1679.87 162.631 1729.34 162.631L1732.86 162.662ZM1729.34 217.483C1706.13 217.483 1686.86 224.886 1671.55 239.687C1656.66 254.488 1647.68 276.03 1644.62 304.327L1813.41 304.333C1810.78 276.037 1801.79 254.488 1786.48 239.687C1771.58 224.886 1752.54 217.483 1729.34 217.483Z" fill="url(#paint0_radial_166_259)"/>
<path d="M458.272 86.5444H386.029L387.161 510.847H459.404L458.272 86.5444Z" fill="url(#paint1_linear_166_259)" stroke="url(#paint2_radial_166_259)" stroke-width="0.1"/>
<path d="M343.703 133.75H391.111H462.222H501.728L422.716 47.2056L343.703 133.75Z" fill="url(#paint3_linear_166_259)" stroke="url(#paint4_radial_166_259)"/>
<path d="M110.802 353.406C112.128 389.057 120.663 415.583 136.411 432.982C152.611 450.393 173.192 459.097 198.147 459.097C219.162 459.097 236.24 454.096 249.375 444.083C262.948 434.071 271.481 420.789 274.984 404.246H351.827C345.261 435.59 328.403 461.712 301.258 482.609C274.113 503.504 239.741 513.954 198.147 513.956C147.797 513.956 108.172 497.625 79.2745 464.975C54.2136 436.224 40.1918 399.036 37.1989 353.406H110.802ZM196.828 162.631C234.482 162.631 266.446 172.865 292.717 193.326C319.425 213.351 337.379 240.778 346.573 275.605C352.702 295.196 355.764 321.1 355.764 353.314H110.833L112.238 304.333H280.894C278.266 276.037 269.289 254.488 253.966 239.687C239.08 224.886 220.034 217.483 196.828 217.483C173.623 217.483 154.36 224.886 139.035 239.687C124.166 254.471 115.188 275.99 112.114 304.241H38.4489C43.1434 267.554 56.7453 236.462 79.2745 210.959C108.171 178.744 147.353 162.632 196.828 162.631Z" fill="url(#paint5_radial_166_259)"/>
<defs>
<radialGradient id="paint0_radial_166_259" cx="0" cy="0" r="1" gradientUnits="userSpaceOnUse" gradientTransform="translate(1187.92 301.725) scale(700.354 212.231)">
<stop/>
<stop offset="1" stop-color="#1F1F1F"/>
</radialGradient>
<linearGradient id="paint1_linear_166_259" x1="422.716" y1="86.5444" x2="422.716" y2="510.847" gradientUnits="userSpaceOnUse">
<stop/>
<stop offset="1" stop-color="#1F1F1F"/>
</linearGradient>
<radialGradient id="paint2_radial_166_259" cx="0" cy="0" r="1" gradientUnits="userSpaceOnUse" gradientTransform="translate(422.716 298.696) scale(36.6879 212.151)">
<stop/>
<stop offset="1" stop-color="#1F1F1F"/>
</radialGradient>
<linearGradient id="paint3_linear_166_259" x1="422.716" y1="47.2056" x2="422.716" y2="133.75" gradientUnits="userSpaceOnUse">
<stop/>
<stop offset="1" stop-color="#1F1F1F"/>
</linearGradient>
<radialGradient id="paint4_radial_166_259" cx="0" cy="0" r="1" gradientUnits="userSpaceOnUse" gradientTransform="translate(422.716 90.4776) scale(79.0122 43.2721)">
<stop/>
<stop offset="1" stop-color="#1F1F1F"/>
</radialGradient>
<radialGradient id="paint5_radial_166_259" cx="0" cy="0" r="1" gradientUnits="userSpaceOnUse" gradientTransform="translate(196.482 338.294) scale(159.283 175.662)">
<stop/>
<stop offset="1" stop-color="#1F1F1F"/>
</radialGradient>
</defs>
</svg>
