<svg width="1759" height="815" viewBox="0 0 1759 815" fill="none" xmlns="http://www.w3.org/2000/svg">
<g style="mix-blend-mode:overlay" opacity="0.4">
<path d="M40.9318 0H0.999969V42.8421M40.9318 0V42.8421M40.9318 0H80.8636M40.9318 42.8421H0.999969M40.9318 42.8421V85.6842M40.9318 42.8421H80.8636M0.999969 42.8421V85.6842M40.9318 85.6842H0.999969M40.9318 85.6842V128.526M40.9318 85.6842H80.8636M0.999969 85.6842V128.526M40.9318 128.526H0.999969M40.9318 128.526V171.368M40.9318 128.526H80.8636M0.999969 128.526V171.368M40.9318 171.368H0.999969M40.9318 171.368V214.21M40.9318 171.368H80.8636M0.999969 171.368V214.21M40.9318 214.21H0.999969M40.9318 214.21V257.053M40.9318 214.21H80.8636M0.999969 214.21V257.053M40.9318 257.053H0.999969M40.9318 257.053V299.895M40.9318 257.053H80.8636M0.999969 257.053V299.895M40.9318 299.895H0.999969M40.9318 299.895V342.737M40.9318 299.895H80.8636M0.999969 299.895V342.737M40.9318 342.737H0.999969M40.9318 342.737V385.579M40.9318 342.737H80.8636M0.999969 342.737V385.579M40.9318 385.579H0.999969M40.9318 385.579V428.421M40.9318 385.579H80.8636M0.999969 385.579V428.421M40.9318 428.421H0.999969M40.9318 428.421V471.263M40.9318 428.421H80.8636M0.999969 428.421V471.263M40.9318 471.263H0.999969M40.9318 471.263V514.105M40.9318 471.263H80.8636M0.999969 471.263V514.105M40.9318 514.105H0.999969M40.9318 514.105V556.947M40.9318 514.105H80.8636M0.999969 514.105V556.947M40.9318 556.947H0.999969M40.9318 556.947V599.789M40.9318 556.947H80.8636M0.999969 556.947V599.789M40.9318 599.789H0.999969M40.9318 599.789V642.631M40.9318 599.789H80.8636M0.999969 599.789V642.631M40.9318 642.631H0.999969M40.9318 642.631V685.474M40.9318 642.631H80.8636M0.999969 642.631V685.474M40.9318 685.474H0.999969M40.9318 685.474V728.316M40.9318 685.474H80.8636M0.999969 685.474V728.316M40.9318 728.316H0.999969M40.9318 728.316V771.158M40.9318 728.316H80.8636M0.999969 728.316V771.158M40.9318 771.158H0.999969M40.9318 771.158V814M40.9318 771.158H80.8636M0.999969 771.158V814H40.9318M40.9318 814H80.8636M80.8636 0V42.8421M80.8636 0H120.795M80.8636 42.8421V85.6842M80.8636 42.8421H120.795M80.8636 85.6842V128.526M80.8636 85.6842H120.795M80.8636 128.526V171.368M80.8636 128.526H120.795M80.8636 171.368V214.21M80.8636 171.368H120.795M80.8636 214.21V257.053M80.8636 214.21H120.795M80.8636 257.053V299.895M80.8636 257.053H120.795M80.8636 299.895V342.737M80.8636 299.895H120.795M80.8636 342.737V385.579M80.8636 342.737H120.795M80.8636 385.579V428.421M80.8636 385.579H120.795M80.8636 428.421V471.263M80.8636 428.421H120.795M80.8636 471.263V514.105M80.8636 471.263H120.795M80.8636 514.105V556.947M80.8636 514.105H120.795M80.8636 556.947V599.789M80.8636 556.947H120.795M80.8636 599.789V642.631M80.8636 599.789H120.795M80.8636 642.631V685.474M80.8636 642.631H120.795M80.8636 685.474V728.316M80.8636 685.474H120.795M80.8636 728.316V771.158M80.8636 728.316H120.795M80.8636 771.158V814M80.8636 771.158H120.795M80.8636 814H120.795M120.795 0V42.8421M120.795 0H160.727M120.795 42.8421V85.6842M120.795 42.8421H160.727M120.795 85.6842V128.526M120.795 85.6842H160.727M120.795 128.526V171.368M120.795 128.526H160.727M120.795 171.368V214.21M120.795 171.368H160.727M120.795 214.21V257.053M120.795 214.21H160.727M120.795 257.053V299.895M120.795 257.053H160.727M120.795 299.895V342.737M120.795 299.895H160.727M120.795 342.737V385.579M120.795 342.737H160.727M120.795 385.579V428.421M120.795 385.579H160.727M120.795 428.421V471.263M120.795 428.421H160.727M120.795 471.263V514.105M120.795 471.263H160.727M120.795 514.105V556.947M120.795 514.105H160.727M120.795 556.947V599.789M120.795 556.947H160.727M120.795 599.789V642.631M120.795 599.789H160.727M120.795 642.631V685.474M120.795 642.631H160.727M120.795 685.474V728.316M120.795 685.474H160.727M120.795 728.316V771.158M120.795 728.316H160.727M120.795 771.158V814M120.795 771.158H160.727M120.795 814H160.727M160.727 0V42.8421M160.727 0H200.659M160.727 42.8421V85.6842M160.727 42.8421H200.659M160.727 85.6842V128.526M160.727 85.6842H200.659M160.727 128.526V171.368M160.727 128.526H200.659M160.727 171.368V214.21M160.727 171.368H200.659M160.727 214.21V257.053M160.727 214.21H200.659M160.727 257.053V299.895M160.727 257.053H200.659M160.727 299.895V342.737M160.727 299.895H200.659M160.727 342.737V385.579M160.727 342.737H200.659M160.727 385.579V428.421M160.727 385.579H200.659M160.727 428.421V471.263M160.727 428.421H200.659M160.727 471.263V514.105M160.727 471.263H200.659M160.727 514.105V556.947M160.727 514.105H200.659M160.727 556.947V599.789M160.727 556.947H200.659M160.727 599.789V642.631M160.727 599.789H200.659M160.727 642.631V685.474M160.727 642.631H200.659M160.727 685.474V728.316M160.727 685.474H200.659M160.727 728.316V771.158M160.727 728.316H200.659M160.727 771.158V814M160.727 771.158H200.659M160.727 814H200.659M200.659 0V42.8421M200.659 0H240.591M200.659 42.8421V85.6842M200.659 42.8421H240.591M200.659 85.6842V128.526M200.659 85.6842H240.591M200.659 128.526V171.368M200.659 128.526H240.591M200.659 171.368V214.21M200.659 171.368H240.591M200.659 214.21V257.053M200.659 214.21H240.591M200.659 257.053V299.895M200.659 257.053H240.591M200.659 299.895V342.737M200.659 299.895H240.591M200.659 342.737V385.579M200.659 342.737H240.591M200.659 385.579V428.421M200.659 385.579H240.591M200.659 428.421V471.263M200.659 428.421H240.591M200.659 471.263V514.105M200.659 471.263H240.591M200.659 514.105V556.947M200.659 514.105H240.591M200.659 556.947V599.789M200.659 556.947H240.591M200.659 599.789V642.631M200.659 599.789H240.591M200.659 642.631V685.474M200.659 642.631H240.591M200.659 685.474V728.316M200.659 685.474H240.591M200.659 728.316V771.158M200.659 728.316H240.591M200.659 771.158V814M200.659 771.158H240.591M200.659 814H240.591M240.591 0V42.8421M240.591 0H280.523M240.591 42.8421V85.6842M240.591 42.8421H280.523M240.591 85.6842V128.526M240.591 85.6842H280.523M240.591 128.526V171.368M240.591 128.526H280.523M240.591 171.368V214.21M240.591 171.368H280.523M240.591 214.21V257.053M240.591 214.21H280.523M240.591 257.053V299.895M240.591 257.053H280.523M240.591 299.895V342.737M240.591 299.895H280.523M240.591 342.737V385.579M240.591 342.737H280.523M240.591 385.579V428.421M240.591 385.579H280.523M240.591 428.421V471.263M240.591 428.421H280.523M240.591 471.263V514.105M240.591 471.263H280.523M240.591 514.105V556.947M240.591 514.105H280.523M240.591 556.947V599.789M240.591 556.947H280.523M240.591 599.789V642.631M240.591 599.789H280.523M240.591 642.631V685.474M240.591 642.631H280.523M240.591 685.474V728.316M240.591 685.474H280.523M240.591 728.316V771.158M240.591 728.316H280.523M240.591 771.158V814M240.591 771.158H280.523M240.591 814H280.523M280.523 0V42.8421M280.523 0H320.455M280.523 42.8421V85.6842M280.523 42.8421H320.455M280.523 85.6842V128.526M280.523 85.6842H320.455M280.523 128.526V171.368M280.523 128.526H320.455M280.523 171.368V214.21M280.523 171.368H320.455M280.523 214.21V257.053M280.523 214.21H320.455M280.523 257.053V299.895M280.523 257.053H320.455M280.523 299.895V342.737M280.523 299.895H320.455M280.523 342.737V385.579M280.523 342.737H320.455M280.523 385.579V428.421M280.523 385.579H320.455M280.523 428.421V471.263M280.523 428.421H320.455M280.523 471.263V514.105M280.523 471.263H320.455M280.523 514.105V556.947M280.523 514.105H320.455M280.523 556.947V599.789M280.523 556.947H320.455M280.523 599.789V642.631M280.523 599.789H320.455M280.523 642.631V685.474M280.523 642.631H320.455M280.523 685.474V728.316M280.523 685.474H320.455M280.523 728.316V771.158M280.523 728.316H320.455M280.523 771.158V814M280.523 771.158H320.455M280.523 814H320.455M320.455 0V42.8421M320.455 0H360.386M320.455 42.8421V85.6842M320.455 42.8421H360.386M320.455 85.6842V128.526M320.455 85.6842H360.386M320.455 128.526V171.368M320.455 128.526H360.386M320.455 171.368V214.21M320.455 171.368H360.386M320.455 214.21V257.053M320.455 214.21H360.386M320.455 257.053V299.895M320.455 257.053H360.386M320.455 299.895V342.737M320.455 299.895H360.386M320.455 342.737V385.579M320.455 342.737H360.386M320.455 385.579V428.421M320.455 385.579H360.386M320.455 428.421V471.263M320.455 428.421H360.386M320.455 471.263V514.105M320.455 471.263H360.386M320.455 514.105V556.947M320.455 514.105H360.386M320.455 556.947V599.789M320.455 556.947H360.386M320.455 599.789V642.631M320.455 599.789H360.386M320.455 642.631V685.474M320.455 642.631H360.386M320.455 685.474V728.316M320.455 685.474H360.386M320.455 728.316V771.158M320.455 728.316H360.386M320.455 771.158V814M320.455 771.158H360.386M320.455 814H360.386M360.386 0V42.8421M360.386 0H400.318M360.386 42.8421V85.6842M360.386 42.8421H400.318M360.386 85.6842V128.526M360.386 85.6842H400.318M360.386 128.526V171.368M360.386 128.526H400.318M360.386 171.368V214.21M360.386 171.368H400.318M360.386 214.21V257.053M360.386 214.21H400.318M360.386 257.053V299.895M360.386 257.053H400.318M360.386 299.895V342.737M360.386 299.895H400.318M360.386 342.737V385.579M360.386 342.737H400.318M360.386 385.579V428.421M360.386 385.579H400.318M360.386 428.421V471.263M360.386 428.421H400.318M360.386 471.263V514.105M360.386 471.263H400.318M360.386 514.105V556.947M360.386 514.105H400.318M360.386 556.947V599.789M360.386 556.947H400.318M360.386 599.789V642.631M360.386 599.789H400.318M360.386 642.631V685.474M360.386 642.631H400.318M360.386 685.474V728.316M360.386 685.474H400.318M360.386 728.316V771.158M360.386 728.316H400.318M360.386 771.158V814M360.386 771.158H400.318M360.386 814H400.318M400.318 0V42.8421M400.318 0H440.25M400.318 42.8421V85.6842M400.318 42.8421H440.25M400.318 85.6842V128.526M400.318 85.6842H440.25M400.318 128.526V171.368M400.318 128.526H440.25M400.318 171.368V214.21M400.318 171.368H440.25M400.318 214.21V257.053M400.318 214.21H440.25M400.318 257.053V299.895M400.318 257.053H440.25M400.318 299.895V342.737M400.318 299.895H440.25M400.318 342.737V385.579M400.318 342.737H440.25M400.318 385.579V428.421M400.318 385.579H440.25M400.318 428.421V471.263M400.318 428.421H440.25M400.318 471.263V514.105M400.318 471.263H440.25M400.318 514.105V556.947M400.318 514.105H440.25M400.318 556.947V599.789M400.318 556.947H440.25M400.318 599.789V642.631M400.318 599.789H440.25M400.318 642.631V685.474M400.318 642.631H440.25M400.318 685.474V728.316M400.318 685.474H440.25M400.318 728.316V771.158M400.318 728.316H440.25M400.318 771.158V814M400.318 771.158H440.25M400.318 814H440.25M440.25 0V42.8421M440.25 0H480.182M440.25 42.8421V85.6842M440.25 42.8421H480.182M440.25 85.6842V128.526M440.25 85.6842H480.182M440.25 128.526V171.368M440.25 128.526H480.182M440.25 171.368V214.21M440.25 171.368H480.182M440.25 214.21V257.053M440.25 214.21H480.182M440.25 257.053V299.895M440.25 257.053H480.182M440.25 299.895V342.737M440.25 299.895H480.182M440.25 342.737V385.579M440.25 342.737H480.182M440.25 385.579V428.421M440.25 385.579H480.182M440.25 428.421V471.263M440.25 428.421H480.182M440.25 471.263V514.105M440.25 471.263H480.182M440.25 514.105V556.947M440.25 514.105H480.182M440.25 556.947V599.789M440.25 556.947H480.182M440.25 599.789V642.631M440.25 599.789H480.182M440.25 642.631V685.474M440.25 642.631H480.182M440.25 685.474V728.316M440.25 685.474H480.182M440.25 728.316V771.158M440.25 728.316H480.182M440.25 771.158V814M440.25 771.158H480.182M440.25 814H480.182M480.182 0V42.8421M480.182 0H520.114M480.182 42.8421V85.6842M480.182 42.8421H520.114M480.182 85.6842V128.526M480.182 85.6842H520.114M480.182 128.526V171.368M480.182 128.526H520.114M480.182 171.368V214.21M480.182 171.368H520.114M480.182 214.21V257.053M480.182 214.21H520.114M480.182 257.053V299.895M480.182 257.053H520.114M480.182 299.895V342.737M480.182 299.895H520.114M480.182 342.737V385.579M480.182 342.737H520.114M480.182 385.579V428.421M480.182 385.579H520.114M480.182 428.421V471.263M480.182 428.421H520.114M480.182 471.263V514.105M480.182 471.263H520.114M480.182 514.105V556.947M480.182 514.105H520.114M480.182 556.947V599.789M480.182 556.947H520.114M480.182 599.789V642.631M480.182 599.789H520.114M480.182 642.631V685.474M480.182 642.631H520.114M480.182 685.474V728.316M480.182 685.474H520.114M480.182 728.316V771.158M480.182 728.316H520.114M480.182 771.158V814M480.182 771.158H520.114M480.182 814H520.114M520.114 0V42.8421M520.114 0H560.045M520.114 42.8421V85.6842M520.114 42.8421H560.045M520.114 85.6842V128.526M520.114 85.6842H560.045M520.114 128.526V171.368M520.114 128.526H560.045M520.114 171.368V214.21M520.114 171.368H560.045M520.114 214.21V257.053M520.114 214.21H560.045M520.114 257.053V299.895M520.114 257.053H560.045M520.114 299.895V342.737M520.114 299.895H560.045M520.114 342.737V385.579M520.114 342.737H560.045M520.114 385.579V428.421M520.114 385.579H560.045M520.114 428.421V471.263M520.114 428.421H560.045M520.114 471.263V514.105M520.114 471.263H560.045M520.114 514.105V556.947M520.114 514.105H560.045M520.114 556.947V599.789M520.114 556.947H560.045M520.114 599.789V642.631M520.114 599.789H560.045M520.114 642.631V685.474M520.114 642.631H560.045M520.114 685.474V728.316M520.114 685.474H560.045M520.114 728.316V771.158M520.114 728.316H560.045M520.114 771.158V814M520.114 771.158H560.045M520.114 814H560.045M560.045 0V42.8421M560.045 0H599.977M560.045 42.8421V85.6842M560.045 42.8421H599.977M560.045 85.6842V128.526M560.045 85.6842H599.977M560.045 128.526V171.368M560.045 128.526H599.977M560.045 171.368V214.21M560.045 171.368H599.977M560.045 214.21V257.053M560.045 214.21H599.977M560.045 257.053V299.895M560.045 257.053H599.977M560.045 299.895V342.737M560.045 299.895H599.977M560.045 342.737V385.579M560.045 342.737H599.977M560.045 385.579V428.421M560.045 385.579H599.977M560.045 428.421V471.263M560.045 428.421H599.977M560.045 471.263V514.105M560.045 471.263H599.977M560.045 514.105V556.947M560.045 514.105H599.977M560.045 556.947V599.789M560.045 556.947H599.977M560.045 599.789V642.631M560.045 599.789H599.977M560.045 642.631V685.474M560.045 642.631H599.977M560.045 685.474V728.316M560.045 685.474H599.977M560.045 728.316V771.158M560.045 728.316H599.977M560.045 771.158V814M560.045 771.158H599.977M560.045 814H599.977M599.977 0V42.8421M599.977 0H639.909M599.977 42.8421V85.6842M599.977 42.8421H639.909M599.977 85.6842V128.526M599.977 85.6842H639.909M599.977 128.526V171.368M599.977 128.526H639.909M599.977 171.368V214.21M599.977 171.368H639.909M599.977 214.21V257.053M599.977 214.21H639.909M599.977 257.053V299.895M599.977 257.053H639.909M599.977 299.895V342.737M599.977 299.895H639.909M599.977 342.737V385.579M599.977 342.737H639.909M599.977 385.579V428.421M599.977 385.579H639.909M599.977 428.421V471.263M599.977 428.421H639.909M599.977 471.263V514.105M599.977 471.263H639.909M599.977 514.105V556.947M599.977 514.105H639.909M599.977 556.947V599.789M599.977 556.947H639.909M599.977 599.789V642.631M599.977 599.789H639.909M599.977 642.631V685.474M599.977 642.631H639.909M599.977 685.474V728.316M599.977 685.474H639.909M599.977 728.316V771.158M599.977 728.316H639.909M599.977 771.158V814M599.977 771.158H639.909M599.977 814H639.909M639.909 0V42.8421M639.909 0H679.841M639.909 42.8421V85.6842M639.909 42.8421H679.841M639.909 85.6842V128.526M639.909 85.6842H679.841M639.909 128.526V171.368M639.909 128.526H679.841M639.909 171.368V214.21M639.909 171.368H679.841M639.909 214.21V257.053M639.909 214.21H679.841M639.909 257.053V299.895M639.909 257.053H679.841M639.909 299.895V342.737M639.909 299.895H679.841M639.909 342.737V385.579M639.909 342.737H679.841M639.909 385.579V428.421M639.909 385.579H679.841M639.909 428.421V471.263M639.909 428.421H679.841M639.909 471.263V514.105M639.909 471.263H679.841M639.909 514.105V556.947M639.909 514.105H679.841M639.909 556.947V599.789M639.909 556.947H679.841M639.909 599.789V642.631M639.909 599.789H679.841M639.909 642.631V685.474M639.909 642.631H679.841M639.909 685.474V728.316M639.909 685.474H679.841M639.909 728.316V771.158M639.909 728.316H679.841M639.909 771.158V814M639.909 771.158H679.841M639.909 814H679.841M679.841 0V42.8421M679.841 0H719.773M679.841 42.8421V85.6842M679.841 42.8421H719.773M679.841 85.6842V128.526M679.841 85.6842H719.773M679.841 128.526V171.368M679.841 128.526H719.773M679.841 171.368V214.21M679.841 171.368H719.773M679.841 214.21V257.053M679.841 214.21H719.773M679.841 257.053V299.895M679.841 257.053H719.773M679.841 299.895V342.737M679.841 299.895H719.773M679.841 342.737V385.579M679.841 342.737H719.773M679.841 385.579V428.421M679.841 385.579H719.773M679.841 428.421V471.263M679.841 428.421H719.773M679.841 471.263V514.105M679.841 471.263H719.773M679.841 514.105V556.947M679.841 514.105H719.773M679.841 556.947V599.789M679.841 556.947H719.773M679.841 599.789V642.631M679.841 599.789H719.773M679.841 642.631V685.474M679.841 642.631H719.773M679.841 685.474V728.316M679.841 685.474H719.773M679.841 728.316V771.158M679.841 728.316H719.773M679.841 771.158V814M679.841 771.158H719.773M679.841 814H719.773M719.773 0V42.8421M719.773 0H759.705M719.773 42.8421V85.6842M719.773 42.8421H759.705M719.773 85.6842V128.526M719.773 85.6842H759.705M719.773 128.526V171.368M719.773 128.526H759.705M719.773 171.368V214.21M719.773 171.368H759.705M719.773 214.21V257.053M719.773 214.21H759.705M719.773 257.053V299.895M719.773 257.053H759.705M719.773 299.895V342.737M719.773 299.895H759.705M719.773 342.737V385.579M719.773 342.737H759.705M719.773 385.579V428.421M719.773 385.579H759.705M719.773 428.421V471.263M719.773 428.421H759.705M719.773 471.263V514.105M719.773 471.263H759.705M719.773 514.105V556.947M719.773 514.105H759.705M719.773 556.947V599.789M719.773 556.947H759.705M719.773 599.789V642.631M719.773 599.789H759.705M719.773 642.631V685.474M719.773 642.631H759.705M719.773 685.474V728.316M719.773 685.474H759.705M719.773 728.316V771.158M719.773 728.316H759.705M719.773 771.158V814M719.773 771.158H759.705M719.773 814H759.705M759.705 0V42.8421M759.705 0H799.636M759.705 42.8421V85.6842M759.705 42.8421H799.636M759.705 85.6842V128.526M759.705 85.6842H799.636M759.705 128.526V171.368M759.705 128.526H799.636M759.705 171.368V214.21M759.705 171.368H799.636M759.705 214.21V257.053M759.705 214.21H799.636M759.705 257.053V299.895M759.705 257.053H799.636M759.705 299.895V342.737M759.705 299.895H799.636M759.705 342.737V385.579M759.705 342.737H799.636M759.705 385.579V428.421M759.705 385.579H799.636M759.705 428.421V471.263M759.705 428.421H799.636M759.705 471.263V514.105M759.705 471.263H799.636M759.705 514.105V556.947M759.705 514.105H799.636M759.705 556.947V599.789M759.705 556.947H799.636M759.705 599.789V642.631M759.705 599.789H799.636M759.705 642.631V685.474M759.705 642.631H799.636M759.705 685.474V728.316M759.705 685.474H799.636M759.705 728.316V771.158M759.705 728.316H799.636M759.705 771.158V814M759.705 771.158H799.636M759.705 814H799.636M799.636 0V42.8421M799.636 0H839.568M799.636 42.8421V85.6842M799.636 42.8421H839.568M799.636 85.6842V128.526M799.636 85.6842H839.568M799.636 128.526V171.368M799.636 128.526H839.568M799.636 171.368V214.21M799.636 171.368H839.568M799.636 214.21V257.053M799.636 214.21H839.568M799.636 257.053V299.895M799.636 257.053H839.568M799.636 299.895V342.737M799.636 299.895H839.568M799.636 342.737V385.579M799.636 342.737H839.568M799.636 385.579V428.421M799.636 385.579H839.568M799.636 428.421V471.263M799.636 428.421H839.568M799.636 471.263V514.105M799.636 471.263H839.568M799.636 514.105V556.947M799.636 514.105H839.568M799.636 556.947V599.789M799.636 556.947H839.568M799.636 599.789V642.631M799.636 599.789H839.568M799.636 642.631V685.474M799.636 642.631H839.568M799.636 685.474V728.316M799.636 685.474H839.568M799.636 728.316V771.158M799.636 728.316H839.568M799.636 771.158V814M799.636 771.158H839.568M799.636 814H839.568M839.568 0V42.8421M839.568 0H879.5M839.568 42.8421V85.6842M839.568 42.8421H879.5M839.568 85.6842V128.526M839.568 85.6842H879.5M839.568 128.526V171.368M839.568 128.526H879.5M839.568 171.368V214.21M839.568 171.368H879.5M839.568 214.21V257.053M839.568 214.21H879.5M839.568 257.053V299.895M839.568 257.053H879.5M839.568 299.895V342.737M839.568 299.895H879.5M839.568 342.737V385.579M839.568 342.737H879.5M839.568 385.579V428.421M839.568 385.579H879.5M839.568 428.421V471.263M839.568 428.421H879.5M839.568 471.263V514.105M839.568 471.263H879.5M839.568 514.105V556.947M839.568 514.105H879.5M839.568 556.947V599.789M839.568 556.947H879.5M839.568 599.789V642.631M839.568 599.789H879.5M839.568 642.631V685.474M839.568 642.631H879.5M839.568 685.474V728.316M839.568 685.474H879.5M839.568 728.316V771.158M839.568 728.316H879.5M839.568 771.158V814M839.568 771.158H879.5M839.568 814H879.5M879.5 0V42.8421M879.5 0H919.432M879.5 42.8421V85.6842M879.5 42.8421H919.432M879.5 85.6842V128.526M879.5 85.6842H919.432M879.5 128.526V171.368M879.5 128.526H919.432M879.5 171.368V214.21M879.5 171.368H919.432M879.5 214.21V257.053M879.5 214.21H919.432M879.5 257.053V299.895M879.5 257.053H919.432M879.5 299.895V342.737M879.5 299.895H919.432M879.5 342.737V385.579M879.5 342.737H919.432M879.5 385.579V428.421M879.5 385.579H919.432M879.5 428.421V471.263M879.5 428.421H919.432M879.5 471.263V514.105M879.5 471.263H919.432M879.5 514.105V556.947M879.5 514.105H919.432M879.5 556.947V599.789M879.5 556.947H919.432M879.5 599.789V642.631M879.5 599.789H919.432M879.5 642.631V685.474M879.5 642.631H919.432M879.5 685.474V728.316M879.5 685.474H919.432M879.5 728.316V771.158M879.5 728.316H919.432M879.5 771.158V814M879.5 771.158H919.432M879.5 814H919.432M919.432 0V42.8421M919.432 0H959.364M919.432 42.8421V85.6842M919.432 42.8421H959.364M919.432 85.6842V128.526M919.432 85.6842H959.364M919.432 128.526V171.368M919.432 128.526H959.364M919.432 171.368V214.21M919.432 171.368H959.364M919.432 214.21V257.053M919.432 214.21H959.364M919.432 257.053V299.895M919.432 257.053H959.364M919.432 299.895V342.737M919.432 299.895H959.364M919.432 342.737V385.579M919.432 342.737H959.364M919.432 385.579V428.421M919.432 385.579H959.364M919.432 428.421V471.263M919.432 428.421H959.364M919.432 471.263V514.105M919.432 471.263H959.364M919.432 514.105V556.947M919.432 514.105H959.364M919.432 556.947V599.789M919.432 556.947H959.364M919.432 599.789V642.631M919.432 599.789H959.364M919.432 642.631V685.474M919.432 642.631H959.364M919.432 685.474V728.316M919.432 685.474H959.364M919.432 728.316V771.158M919.432 728.316H959.364M919.432 771.158V814M919.432 771.158H959.364M919.432 814H959.364M959.364 0V42.8421M959.364 0H999.295M959.364 42.8421V85.6842M959.364 42.8421H999.295M959.364 85.6842V128.526M959.364 85.6842H999.295M959.364 128.526V171.368M959.364 128.526H999.295M959.364 171.368V214.21M959.364 171.368H999.295M959.364 214.21V257.053M959.364 214.21H999.295M959.364 257.053V299.895M959.364 257.053H999.295M959.364 299.895V342.737M959.364 299.895H999.295M959.364 342.737V385.579M959.364 342.737H999.295M959.364 385.579V428.421M959.364 385.579H999.295M959.364 428.421V471.263M959.364 428.421H999.295M959.364 471.263V514.105M959.364 471.263H999.295M959.364 514.105V556.947M959.364 514.105H999.295M959.364 556.947V599.789M959.364 556.947H999.295M959.364 599.789V642.631M959.364 599.789H999.295M959.364 642.631V685.474M959.364 642.631H999.295M959.364 685.474V728.316M959.364 685.474H999.295M959.364 728.316V771.158M959.364 728.316H999.295M959.364 771.158V814M959.364 771.158H999.295M959.364 814H999.295M999.295 0V42.8421M999.295 0H1039.23M999.295 42.8421V85.6842M999.295 42.8421H1039.23M999.295 85.6842V128.526M999.295 85.6842H1039.23M999.295 128.526V171.368M999.295 128.526H1039.23M999.295 171.368V214.21M999.295 171.368H1039.23M999.295 214.21V257.053M999.295 214.21H1039.23M999.295 257.053V299.895M999.295 257.053H1039.23M999.295 299.895V342.737M999.295 299.895H1039.23M999.295 342.737V385.579M999.295 342.737H1039.23M999.295 385.579V428.421M999.295 385.579H1039.23M999.295 428.421V471.263M999.295 428.421H1039.23M999.295 471.263V514.105M999.295 471.263H1039.23M999.295 514.105V556.947M999.295 514.105H1039.23M999.295 556.947V599.789M999.295 556.947H1039.23M999.295 599.789V642.631M999.295 599.789H1039.23M999.295 642.631V685.474M999.295 642.631H1039.23M999.295 685.474V728.316M999.295 685.474H1039.23M999.295 728.316V771.158M999.295 728.316H1039.23M999.295 771.158V814M999.295 771.158H1039.23M999.295 814H1039.23M1039.23 0V42.8421M1039.23 0H1079.16M1039.23 42.8421V85.6842M1039.23 42.8421H1079.16M1039.23 85.6842V128.526M1039.23 85.6842H1079.16M1039.23 128.526V171.368M1039.23 128.526H1079.16M1039.23 171.368V214.21M1039.23 171.368H1079.16M1039.23 214.21V257.053M1039.23 214.21H1079.16M1039.23 257.053V299.895M1039.23 257.053H1079.16M1039.23 299.895V342.737M1039.23 299.895H1079.16M1039.23 342.737V385.579M1039.23 342.737H1079.16M1039.23 385.579V428.421M1039.23 385.579H1079.16M1039.23 428.421V471.263M1039.23 428.421H1079.16M1039.23 471.263V514.105M1039.23 471.263H1079.16M1039.23 514.105V556.947M1039.23 514.105H1079.16M1039.23 556.947V599.789M1039.23 556.947H1079.16M1039.23 599.789V642.631M1039.23 599.789H1079.16M1039.23 642.631V685.474M1039.23 642.631H1079.16M1039.23 685.474V728.316M1039.23 685.474H1079.16M1039.23 728.316V771.158M1039.23 728.316H1079.16M1039.23 771.158V814M1039.23 771.158H1079.16M1039.23 814H1079.16M1079.16 0V42.8421M1079.16 0H1119.09M1079.16 42.8421V85.6842M1079.16 42.8421H1119.09M1079.16 85.6842V128.526M1079.16 85.6842H1119.09M1079.16 128.526V171.368M1079.16 128.526H1119.09M1079.16 171.368V214.21M1079.16 171.368H1119.09M1079.16 214.21V257.053M1079.16 214.21H1119.09M1079.16 257.053V299.895M1079.16 257.053H1119.09M1079.16 299.895V342.737M1079.16 299.895H1119.09M1079.16 342.737V385.579M1079.16 342.737H1119.09M1079.16 385.579V428.421M1079.16 385.579H1119.09M1079.16 428.421V471.263M1079.16 428.421H1119.09M1079.16 471.263V514.105M1079.16 471.263H1119.09M1079.16 514.105V556.947M1079.16 514.105H1119.09M1079.16 556.947V599.789M1079.16 556.947H1119.09M1079.16 599.789V642.631M1079.16 599.789H1119.09M1079.16 642.631V685.474M1079.16 642.631H1119.09M1079.16 685.474V728.316M1079.16 685.474H1119.09M1079.16 728.316V771.158M1079.16 728.316H1119.09M1079.16 771.158V814M1079.16 771.158H1119.09M1079.16 814H1119.09M1119.09 0V42.8421M1119.09 0H1159.02M1119.09 42.8421V85.6842M1119.09 42.8421H1159.02M1119.09 85.6842V128.526M1119.09 85.6842H1159.02M1119.09 128.526V171.368M1119.09 128.526H1159.02M1119.09 171.368V214.21M1119.09 171.368H1159.02M1119.09 214.21V257.053M1119.09 214.21H1159.02M1119.09 257.053V299.895M1119.09 257.053H1159.02M1119.09 299.895V342.737M1119.09 299.895H1159.02M1119.09 342.737V385.579M1119.09 342.737H1159.02M1119.09 385.579V428.421M1119.09 385.579H1159.02M1119.09 428.421V471.263M1119.09 428.421H1159.02M1119.09 471.263V514.105M1119.09 471.263H1159.02M1119.09 514.105V556.947M1119.09 514.105H1159.02M1119.09 556.947V599.789M1119.09 556.947H1159.02M1119.09 599.789V642.631M1119.09 599.789H1159.02M1119.09 642.631V685.474M1119.09 642.631H1159.02M1119.09 685.474V728.316M1119.09 685.474H1159.02M1119.09 728.316V771.158M1119.09 728.316H1159.02M1119.09 771.158V814M1119.09 771.158H1159.02M1119.09 814H1159.02M1159.02 0V42.8421M1159.02 0H1198.95M1159.02 42.8421V85.6842M1159.02 42.8421H1198.95M1159.02 85.6842V128.526M1159.02 85.6842H1198.95M1159.02 128.526V171.368M1159.02 128.526H1198.95M1159.02 171.368V214.21M1159.02 171.368H1198.95M1159.02 214.21V257.053M1159.02 214.21H1198.95M1159.02 257.053V299.895M1159.02 257.053H1198.95M1159.02 299.895V342.737M1159.02 299.895H1198.95M1159.02 342.737V385.579M1159.02 342.737H1198.95M1159.02 385.579V428.421M1159.02 385.579H1198.95M1159.02 428.421V471.263M1159.02 428.421H1198.95M1159.02 471.263V514.105M1159.02 471.263H1198.95M1159.02 514.105V556.947M1159.02 514.105H1198.95M1159.02 556.947V599.789M1159.02 556.947H1198.95M1159.02 599.789V642.631M1159.02 599.789H1198.95M1159.02 642.631V685.474M1159.02 642.631H1198.95M1159.02 685.474V728.316M1159.02 685.474H1198.95M1159.02 728.316V771.158M1159.02 728.316H1198.95M1159.02 771.158V814M1159.02 771.158H1198.95M1159.02 814H1198.95M1198.95 0V42.8421M1198.95 0H1238.89M1198.95 42.8421V85.6842M1198.95 42.8421H1238.89M1198.95 85.6842V128.526M1198.95 85.6842H1238.89M1198.95 128.526V171.368M1198.95 128.526H1238.89M1198.95 171.368V214.21M1198.95 171.368H1238.89M1198.95 214.21V257.053M1198.95 214.21H1238.89M1198.95 257.053V299.895M1198.95 257.053H1238.89M1198.95 299.895V342.737M1198.95 299.895H1238.89M1198.95 342.737V385.579M1198.95 342.737H1238.89M1198.95 385.579V428.421M1198.95 385.579H1238.89M1198.95 428.421V471.263M1198.95 428.421H1238.89M1198.95 471.263V514.105M1198.95 471.263H1238.89M1198.95 514.105V556.947M1198.95 514.105H1238.89M1198.95 556.947V599.789M1198.95 556.947H1238.89M1198.95 599.789V642.631M1198.95 599.789H1238.89M1198.95 642.631V685.474M1198.95 642.631H1238.89M1198.95 685.474V728.316M1198.95 685.474H1238.89M1198.95 728.316V771.158M1198.95 728.316H1238.89M1198.95 771.158V814M1198.95 771.158H1238.89M1198.95 814H1238.89M1238.89 0V42.8421M1238.89 0H1278.82M1238.89 42.8421V85.6842M1238.89 42.8421H1278.82M1238.89 85.6842V128.526M1238.89 85.6842H1278.82M1238.89 128.526V171.368M1238.89 128.526H1278.82M1238.89 171.368V214.21M1238.89 171.368H1278.82M1238.89 214.21V257.053M1238.89 214.21H1278.82M1238.89 257.053V299.895M1238.89 257.053H1278.82M1238.89 299.895V342.737M1238.89 299.895H1278.82M1238.89 342.737V385.579M1238.89 342.737H1278.82M1238.89 385.579V428.421M1238.89 385.579H1278.82M1238.89 428.421V471.263M1238.89 428.421H1278.82M1238.89 471.263V514.105M1238.89 471.263H1278.82M1238.89 514.105V556.947M1238.89 514.105H1278.82M1238.89 556.947V599.789M1238.89 556.947H1278.82M1238.89 599.789V642.631M1238.89 599.789H1278.82M1238.89 642.631V685.474M1238.89 642.631H1278.82M1238.89 685.474V728.316M1238.89 685.474H1278.82M1238.89 728.316V771.158M1238.89 728.316H1278.82M1238.89 771.158V814M1238.89 771.158H1278.82M1238.89 814H1278.82M1278.82 0V42.8421M1278.82 0H1318.75M1278.82 42.8421V85.6842M1278.82 42.8421H1318.75M1278.82 85.6842V128.526M1278.82 85.6842H1318.75M1278.82 128.526V171.368M1278.82 128.526H1318.75M1278.82 171.368V214.21M1278.82 171.368H1318.75M1278.82 214.21V257.053M1278.82 214.21H1318.75M1278.82 257.053V299.895M1278.82 257.053H1318.75M1278.82 299.895V342.737M1278.82 299.895H1318.75M1278.82 342.737V385.579M1278.82 342.737H1318.75M1278.82 385.579V428.421M1278.82 385.579H1318.75M1278.82 428.421V471.263M1278.82 428.421H1318.75M1278.82 471.263V514.105M1278.82 471.263H1318.75M1278.82 514.105V556.947M1278.82 514.105H1318.75M1278.82 556.947V599.789M1278.82 556.947H1318.75M1278.82 599.789V642.631M1278.82 599.789H1318.75M1278.82 642.631V685.474M1278.82 642.631H1318.75M1278.82 685.474V728.316M1278.82 685.474H1318.75M1278.82 728.316V771.158M1278.82 728.316H1318.75M1278.82 771.158V814M1278.82 771.158H1318.75M1278.82 814H1318.75M1318.75 0V42.8421M1318.75 0H1358.68M1318.75 42.8421V85.6842M1318.75 42.8421H1358.68M1318.75 85.6842V128.526M1318.75 85.6842H1358.68M1318.75 128.526V171.368M1318.75 128.526H1358.68M1318.75 171.368V214.21M1318.75 171.368H1358.68M1318.75 214.21V257.053M1318.75 214.21H1358.68M1318.75 257.053V299.895M1318.75 257.053H1358.68M1318.75 299.895V342.737M1318.75 299.895H1358.68M1318.75 342.737V385.579M1318.75 342.737H1358.68M1318.75 385.579V428.421M1318.75 385.579H1358.68M1318.75 428.421V471.263M1318.75 428.421H1358.68M1318.75 471.263V514.105M1318.75 471.263H1358.68M1318.75 514.105V556.947M1318.75 514.105H1358.68M1318.75 556.947V599.789M1318.75 556.947H1358.68M1318.75 599.789V642.631M1318.75 599.789H1358.68M1318.75 642.631V685.474M1318.75 642.631H1358.68M1318.75 685.474V728.316M1318.75 685.474H1358.68M1318.75 728.316V771.158M1318.75 728.316H1358.68M1318.75 771.158V814M1318.75 771.158H1358.68M1318.75 814H1358.68M1358.68 0V42.8421M1358.68 0H1398.61M1358.68 42.8421V85.6842M1358.68 42.8421H1398.61M1358.68 85.6842V128.526M1358.68 85.6842H1398.61M1358.68 128.526V171.368M1358.68 128.526H1398.61M1358.68 171.368V214.21M1358.68 171.368H1398.61M1358.68 214.21V257.053M1358.68 214.21H1398.61M1358.68 257.053V299.895M1358.68 257.053H1398.61M1358.68 299.895V342.737M1358.68 299.895H1398.61M1358.68 342.737V385.579M1358.68 342.737H1398.61M1358.68 385.579V428.421M1358.68 385.579H1398.61M1358.68 428.421V471.263M1358.68 428.421H1398.61M1358.68 471.263V514.105M1358.68 471.263H1398.61M1358.68 514.105V556.947M1358.68 514.105H1398.61M1358.68 556.947V599.789M1358.68 556.947H1398.61M1358.68 599.789V642.631M1358.68 599.789H1398.61M1358.68 642.631V685.474M1358.68 642.631H1398.61M1358.68 685.474V728.316M1358.68 685.474H1398.61M1358.68 728.316V771.158M1358.68 728.316H1398.61M1358.68 771.158V814M1358.68 771.158H1398.61M1358.68 814H1398.61M1398.61 0V42.8421M1398.61 0H1438.55M1398.61 42.8421V85.6842M1398.61 42.8421H1438.55M1398.61 85.6842V128.526M1398.61 85.6842H1438.55M1398.61 128.526V171.368M1398.61 128.526H1438.55M1398.61 171.368V214.21M1398.61 171.368H1438.55M1398.61 214.21V257.053M1398.61 214.21H1438.55M1398.61 257.053V299.895M1398.61 257.053H1438.55M1398.61 299.895V342.737M1398.61 299.895H1438.55M1398.61 342.737V385.579M1398.61 342.737H1438.55M1398.61 385.579V428.421M1398.61 385.579H1438.55M1398.61 428.421V471.263M1398.61 428.421H1438.55M1398.61 471.263V514.105M1398.61 471.263H1438.55M1398.61 514.105V556.947M1398.61 514.105H1438.55M1398.61 556.947V599.789M1398.61 556.947H1438.55M1398.61 599.789V642.631M1398.61 599.789H1438.55M1398.61 642.631V685.474M1398.61 642.631H1438.55M1398.61 685.474V728.316M1398.61 685.474H1438.55M1398.61 728.316V771.158M1398.61 728.316H1438.55M1398.61 771.158V814M1398.61 771.158H1438.55M1398.61 814H1438.55M1438.55 0V42.8421M1438.55 0H1478.48M1438.55 42.8421V85.6842M1438.55 42.8421H1478.48M1438.55 85.6842V128.526M1438.55 85.6842H1478.48M1438.55 128.526V171.368M1438.55 128.526H1478.48M1438.55 171.368V214.21M1438.55 171.368H1478.48M1438.55 214.21V257.053M1438.55 214.21H1478.48M1438.55 257.053V299.895M1438.55 257.053H1478.48M1438.55 299.895V342.737M1438.55 299.895H1478.48M1438.55 342.737V385.579M1438.55 342.737H1478.48M1438.55 385.579V428.421M1438.55 385.579H1478.48M1438.55 428.421V471.263M1438.55 428.421H1478.48M1438.55 471.263V514.105M1438.55 471.263H1478.48M1438.55 514.105V556.947M1438.55 514.105H1478.48M1438.55 556.947V599.789M1438.55 556.947H1478.48M1438.55 599.789V642.631M1438.55 599.789H1478.48M1438.55 642.631V685.474M1438.55 642.631H1478.48M1438.55 685.474V728.316M1438.55 685.474H1478.48M1438.55 728.316V771.158M1438.55 728.316H1478.48M1438.55 771.158V814M1438.55 771.158H1478.48M1438.55 814H1478.48M1478.48 0V42.8421M1478.48 0H1518.41M1478.48 42.8421V85.6842M1478.48 42.8421H1518.41M1478.48 85.6842V128.526M1478.48 85.6842H1518.41M1478.48 128.526V171.368M1478.48 128.526H1518.41M1478.48 171.368V214.21M1478.48 171.368H1518.41M1478.48 214.21V257.053M1478.48 214.21H1518.41M1478.48 257.053V299.895M1478.48 257.053H1518.41M1478.48 299.895V342.737M1478.48 299.895H1518.41M1478.48 342.737V385.579M1478.48 342.737H1518.41M1478.48 385.579V428.421M1478.48 385.579H1518.41M1478.48 428.421V471.263M1478.48 428.421H1518.41M1478.48 471.263V514.105M1478.48 471.263H1518.41M1478.48 514.105V556.947M1478.48 514.105H1518.41M1478.48 556.947V599.789M1478.48 556.947H1518.41M1478.48 599.789V642.631M1478.48 599.789H1518.41M1478.48 642.631V685.474M1478.48 642.631H1518.41M1478.48 685.474V728.316M1478.48 685.474H1518.41M1478.48 728.316V771.158M1478.48 728.316H1518.41M1478.48 771.158V814M1478.48 771.158H1518.41M1478.48 814H1518.41M1518.41 0V42.8421M1518.41 0H1558.34M1518.41 42.8421V85.6842M1518.41 42.8421H1558.34M1518.41 85.6842V128.526M1518.41 85.6842H1558.34M1518.41 128.526V171.368M1518.41 128.526H1558.34M1518.41 171.368V214.21M1518.41 171.368H1558.34M1518.41 214.21V257.053M1518.41 214.21H1558.34M1518.41 257.053V299.895M1518.41 257.053H1558.34M1518.41 299.895V342.737M1518.41 299.895H1558.34M1518.41 342.737V385.579M1518.41 342.737H1558.34M1518.41 385.579V428.421M1518.41 385.579H1558.34M1518.41 428.421V471.263M1518.41 428.421H1558.34M1518.41 471.263V514.105M1518.41 471.263H1558.34M1518.41 514.105V556.947M1518.41 514.105H1558.34M1518.41 556.947V599.789M1518.41 556.947H1558.34M1518.41 599.789V642.631M1518.41 599.789H1558.34M1518.41 642.631V685.474M1518.41 642.631H1558.34M1518.41 685.474V728.316M1518.41 685.474H1558.34M1518.41 728.316V771.158M1518.41 728.316H1558.34M1518.41 771.158V814M1518.41 771.158H1558.34M1518.41 814H1558.34M1558.34 0V42.8421M1558.34 0H1598.27M1558.34 42.8421V85.6842M1558.34 42.8421H1598.27M1558.34 85.6842V128.526M1558.34 85.6842H1598.27M1558.34 128.526V171.368M1558.34 128.526H1598.27M1558.34 171.368V214.21M1558.34 171.368H1598.27M1558.34 214.21V257.053M1558.34 214.21H1598.27M1558.34 257.053V299.895M1558.34 257.053H1598.27M1558.34 299.895V342.737M1558.34 299.895H1598.27M1558.34 342.737V385.579M1558.34 342.737H1598.27M1558.34 385.579V428.421M1558.34 385.579H1598.27M1558.34 428.421V471.263M1558.34 428.421H1598.27M1558.34 471.263V514.105M1558.34 471.263H1598.27M1558.34 514.105V556.947M1558.34 514.105H1598.27M1558.34 556.947V599.789M1558.34 556.947H1598.27M1558.34 599.789V642.631M1558.34 599.789H1598.27M1558.34 642.631V685.474M1558.34 642.631H1598.27M1558.34 685.474V728.316M1558.34 685.474H1598.27M1558.34 728.316V771.158M1558.34 728.316H1598.27M1558.34 771.158V814M1558.34 771.158H1598.27M1558.34 814H1598.27M1598.27 0V42.8421M1598.27 0H1638.2M1598.27 42.8421V85.6842M1598.27 42.8421H1638.2M1598.27 85.6842V128.526M1598.27 85.6842H1638.2M1598.27 128.526V171.368M1598.27 128.526H1638.2M1598.27 171.368V214.21M1598.27 171.368H1638.2M1598.27 214.21V257.053M1598.27 214.21H1638.2M1598.27 257.053V299.895M1598.27 257.053H1638.2M1598.27 299.895V342.737M1598.27 299.895H1638.2M1598.27 342.737V385.579M1598.27 342.737H1638.2M1598.27 385.579V428.421M1598.27 385.579H1638.2M1598.27 428.421V471.263M1598.27 428.421H1638.2M1598.27 471.263V514.105M1598.27 471.263H1638.2M1598.27 514.105V556.947M1598.27 514.105H1638.2M1598.27 556.947V599.789M1598.27 556.947H1638.2M1598.27 599.789V642.631M1598.27 599.789H1638.2M1598.27 642.631V685.474M1598.27 642.631H1638.2M1598.27 685.474V728.316M1598.27 685.474H1638.2M1598.27 728.316V771.158M1598.27 728.316H1638.2M1598.27 771.158V814M1598.27 771.158H1638.2M1598.27 814H1638.2M1638.2 0V42.8421M1638.2 0H1678.14M1638.2 42.8421V85.6842M1638.2 42.8421H1678.14M1638.2 85.6842V128.526M1638.2 85.6842H1678.14M1638.2 128.526V171.368M1638.2 128.526H1678.14M1638.2 171.368V214.21M1638.2 171.368H1678.14M1638.2 214.21V257.053M1638.2 214.21H1678.14M1638.2 257.053V299.895M1638.2 257.053H1678.14M1638.2 299.895V342.737M1638.2 299.895H1678.14M1638.2 342.737V385.579M1638.2 342.737H1678.14M1638.2 385.579V428.421M1638.2 385.579H1678.14M1638.2 428.421V471.263M1638.2 428.421H1678.14M1638.2 471.263V514.105M1638.2 471.263H1678.14M1638.2 514.105V556.947M1638.2 514.105H1678.14M1638.2 556.947V599.789M1638.2 556.947H1678.14M1638.2 599.789V642.631M1638.2 599.789H1678.14M1638.2 642.631V685.474M1638.2 642.631H1678.14M1638.2 685.474V728.316M1638.2 685.474H1678.14M1638.2 728.316V771.158M1638.2 728.316H1678.14M1638.2 771.158V814M1638.2 771.158H1678.14M1638.2 814H1678.14M1678.14 0V42.8421M1678.14 0H1718.07M1678.14 42.8421V85.6842M1678.14 42.8421H1718.07M1678.14 85.6842V128.526M1678.14 85.6842H1718.07M1678.14 128.526V171.368M1678.14 128.526H1718.07M1678.14 171.368V214.21M1678.14 171.368H1718.07M1678.14 214.21V257.053M1678.14 214.21H1718.07M1678.14 257.053V299.895M1678.14 257.053H1718.07M1678.14 299.895V342.737M1678.14 299.895H1718.07M1678.14 342.737V385.579M1678.14 342.737H1718.07M1678.14 385.579V428.421M1678.14 385.579H1718.07M1678.14 428.421V471.263M1678.14 428.421H1718.07M1678.14 471.263V514.105M1678.14 471.263H1718.07M1678.14 514.105V556.947M1678.14 514.105H1718.07M1678.14 556.947V599.789M1678.14 556.947H1718.07M1678.14 599.789V642.631M1678.14 599.789H1718.07M1678.14 642.631V685.474M1678.14 642.631H1718.07M1678.14 685.474V728.316M1678.14 685.474H1718.07M1678.14 728.316V771.158M1678.14 728.316H1718.07M1678.14 771.158V814M1678.14 771.158H1718.07M1678.14 814H1718.07M1718.07 0V42.8421M1718.07 0H1758V42.8421M1718.07 42.8421V85.6842M1718.07 42.8421H1758M1718.07 85.6842V128.526M1718.07 85.6842H1758M1718.07 128.526V171.368M1718.07 128.526H1758M1718.07 171.368V214.21M1718.07 171.368H1758M1718.07 214.21V257.053M1718.07 214.21H1758M1718.07 257.053V299.895M1718.07 257.053H1758M1718.07 299.895V342.737M1718.07 299.895H1758M1718.07 342.737V385.579M1718.07 342.737H1758M1718.07 385.579V428.421M1718.07 385.579H1758M1718.07 428.421V471.263M1718.07 428.421H1758M1718.07 471.263V514.105M1718.07 471.263H1758M1718.07 514.105V556.947M1718.07 514.105H1758M1718.07 556.947V599.789M1718.07 556.947H1758M1718.07 599.789V642.631M1718.07 599.789H1758M1718.07 642.631V685.474M1718.07 642.631H1758M1718.07 685.474V728.316M1718.07 685.474H1758M1718.07 728.316V771.158M1718.07 728.316H1758M1718.07 771.158V814M1718.07 771.158H1758M1718.07 814H1758V771.158M1758 42.8421V85.6842M1758 85.6842V128.526M1758 128.526V171.368M1758 171.368V214.21M1758 214.21V257.053M1758 257.053V299.895M1758 299.895V342.737M1758 342.737V385.579M1758 385.579V428.421M1758 428.421V471.263M1758 471.263V514.105M1758 514.105V556.947M1758 556.947V599.789M1758 599.789V642.631M1758 642.631V685.474M1758 685.474V728.316M1758 728.316V771.158" stroke="url(#paint0_radial_56_64)"/>
</g>
<defs>
<radialGradient id="paint0_radial_56_64" cx="0" cy="0" r="1" gradientUnits="userSpaceOnUse" gradientTransform="translate(879.5 407) rotate(90) scale(407 709.404)">
<stop stop-color="white"/>
<stop offset="1" stop-color="white" stop-opacity="0.2"/>
</radialGradient>
</defs>
</svg>
