<svg width="115" height="32" viewBox="0 0 115 32" fill="none" xmlns="http://www.w3.org/2000/svg">
<path d="M33.6119 21.1383C33.6913 23.2707 34.2026 24.8574 35.1458 25.898C36.1161 26.9394 37.3488 27.46 38.8435 27.46C40.1022 27.46 41.1251 27.1609 41.9118 26.562C42.7248 25.9631 43.2359 25.1687 43.4457 24.1792H48.0482C47.655 26.054 46.6453 27.6164 45.0194 28.8663C43.3935 30.1161 41.3348 30.7412 38.8435 30.7413C35.8277 30.7413 33.4543 29.7645 31.7235 27.8116C30.2225 26.0919 29.3826 23.8676 29.2034 21.1383H33.6119ZM98.4277 21.1383C98.5072 23.2707 99.0183 24.8574 99.9615 25.898C100.931 26.9395 102.164 27.46 103.659 27.46C104.918 27.46 105.941 27.1609 106.728 26.562C107.54 25.9631 108.052 25.1687 108.262 24.1792H112.864C112.47 26.0541 111.46 27.6164 109.835 28.8663C108.209 30.1161 106.15 30.7413 103.659 30.7413C100.643 30.7413 98.2701 29.7645 96.5389 27.8116C95.0378 26.0919 94.1982 23.8675 94.0189 21.1383H98.4277ZM74.0169 9.72748C76.6922 9.72748 78.7244 10.3786 80.1143 11.6806C81.5303 12.9826 82.2382 14.9226 82.2382 17.5005V24.9214C82.2382 27.0566 82.4086 28.8013 82.7498 30.1553H78.6983C78.5374 29.449 78.447 28.6528 78.4272 27.767L78.4229 27.3819H78.3443C76.8754 29.517 74.6331 30.585 71.6175 30.585C69.5717 30.585 67.9328 30.038 66.7 28.9444C65.4676 27.8247 64.851 26.4056 64.851 24.6871C64.851 22.9945 65.4284 21.6405 66.5821 20.625C67.7624 19.6095 69.7421 18.8802 72.5219 18.4375C74.2001 18.1511 75.9965 17.9557 77.9113 17.8516V17.0708C77.9113 14.3367 76.6132 12.9692 74.0169 12.9692C72.8101 12.9692 71.866 13.2818 71.1845 13.9067C70.5026 14.5316 70.1358 15.3782 70.0833 16.4458H65.6773C65.7824 14.4668 66.5429 12.8524 67.9593 11.6025C69.4013 10.3526 71.4207 9.72748 74.0169 9.72748ZM90.3143 10.3134H94.2087V13.7114H90.3143V23.6324C90.3143 24.752 90.5234 25.5595 90.9437 26.0542C91.363 26.5229 92.0577 26.7573 93.0284 26.7574C93.6053 26.7574 94.0638 26.6922 94.405 26.562V30.0382C93.592 30.2725 92.7534 30.3897 91.8878 30.3897C89.7639 30.3897 88.2159 29.9208 87.2457 28.9834C86.3021 28.02 85.8297 26.4576 85.8297 24.2964V13.7114H82.4862V10.3134H85.8297V5.35294H90.3143V10.3134ZM54.2492 18.3984C55.1148 21.0284 55.9671 23.9191 56.8062 27.0698H56.8848C57.7238 23.9191 58.5766 21.0284 59.4422 18.3984L62.038 10.3134H66.7189L59.7569 30.1553H53.9345L46.972 10.3134H51.6535L54.2492 18.3984ZM77.9113 20.7422C76.2067 20.8463 74.6724 21.0157 73.3089 21.25C71.866 21.4843 70.8433 21.836 70.2409 22.3047C69.664 22.7734 69.3753 23.4632 69.3753 24.3745C69.3753 25.2599 69.6767 25.9761 70.2801 26.523C70.9096 27.0437 71.7874 27.3042 72.9157 27.3042C74.4362 27.3042 75.6425 26.8613 76.5346 25.9761C77.0585 25.4293 77.4125 24.8563 77.5966 24.2574C77.8058 23.6324 77.9113 22.7863 77.9113 21.7187V20.7422ZM38.7645 9.72748C41.0199 9.72748 42.9343 10.3396 44.5078 11.5634C46.1075 12.7612 47.1829 14.4017 47.7335 16.4848C48.1008 17.6566 48.2839 19.206 48.2839 21.1328H33.6919V18.2031H43.7998C43.6424 16.5106 43.1047 15.2217 42.1868 14.3364C41.2952 13.4512 40.1544 13.0083 38.7645 13.0083C37.3747 13.0083 36.2208 13.4511 35.303 14.3364C34.4115 15.2216 33.8736 16.5104 33.69 18.2027H29.2778C29.5584 16.0061 30.3731 14.1447 31.7235 12.6181C33.4543 10.6912 35.8012 9.72752 38.7645 9.72748ZM103.791 9.72931C105.955 9.76635 107.799 10.3778 109.324 11.5634C110.923 12.7612 111.999 14.4017 112.549 16.4848C112.916 17.6566 113.1 19.2059 113.1 21.1328H98.5058V18.2027H94.0932C94.3738 16.0062 95.1883 14.1446 96.5389 12.6181C98.2701 10.6912 100.617 9.72748 103.58 9.72748L103.791 9.72931ZM103.58 13.0083C102.19 13.0083 101.036 13.4511 100.119 14.3364C99.227 15.2217 98.6894 16.5102 98.5058 18.2027L108.616 18.2031C108.458 16.5106 107.92 15.2217 107.003 14.3364C106.11 13.4511 104.97 13.0083 103.58 13.0083Z" fill="white"/>
<path d="M27.4486 5.17648H23.1215L23.1893 30.5553H27.5164L27.4486 5.17648Z" fill="white" stroke="white" stroke-width="0.1"/>
<path d="M20.5864 7.99999H23.4259H27.6852H30.0514L25.3189 2.82352L20.5864 7.99999Z" fill="white" stroke="white"/>
<path d="M6.63658 21.1383C6.71599 23.2707 7.22724 24.8573 8.17048 25.898C9.14078 26.9394 10.3735 27.46 11.8682 27.46C13.1269 27.46 14.1498 27.1609 14.9365 26.562C15.7495 25.9631 16.2606 25.1687 16.4704 24.1792H21.073C20.6797 26.054 19.67 27.6164 18.0441 28.8663C16.4182 30.1161 14.3595 30.7412 11.8682 30.7413C8.85243 30.7413 6.47903 29.7645 4.74821 27.8116C3.24717 26.0919 2.40732 23.8676 2.22806 21.1383H6.63658ZM11.7892 9.72748C14.0445 9.72748 15.959 10.3396 17.5325 11.5634C19.1322 12.7612 20.2076 14.4017 20.7583 16.4848C21.1254 17.6566 21.3088 19.206 21.3088 21.1328H6.63842L6.72257 18.2031H16.8244C16.667 16.5106 16.1293 15.2217 15.2115 14.3364C14.3199 13.4511 13.1791 13.0083 11.7892 13.0083C10.3993 13.0083 9.24551 13.4511 8.32764 14.3364C7.43703 15.2207 6.89928 16.5078 6.71518 18.1976H2.30293C2.58411 16.0032 3.39881 14.1435 4.74821 12.6181C6.47898 10.6912 8.82584 9.72753 11.7892 9.72748Z" fill="white"/>
</svg>
