<svg width="115" height="32" viewBox="0 0 115 32" fill="none" xmlns="http://www.w3.org/2000/svg">
<path d="M33.6119 21.1384C33.6913 23.2708 34.2026 24.8574 35.1458 25.8981C36.1161 26.9395 37.3488 27.4601 38.8435 27.4601C40.1022 27.4601 41.1251 27.161 41.9118 26.5621C42.7248 25.9632 43.2359 25.1688 43.4457 24.1793H48.0482C47.655 26.0541 46.6453 27.6165 45.0194 28.8663C43.3935 30.1162 41.3348 30.7413 38.8435 30.7414C35.8277 30.7414 33.4543 29.7646 31.7235 27.8117C30.2225 26.092 29.3826 23.8677 29.2034 21.1384H33.6119ZM98.4277 21.1384C98.5072 23.2708 99.0183 24.8574 99.9615 25.8981C100.931 26.9396 102.164 27.4601 103.659 27.4601C104.918 27.4601 105.941 27.161 106.728 26.5621C107.54 25.9632 108.052 25.1688 108.262 24.1793H112.864C112.47 26.0542 111.46 27.6165 109.835 28.8663C108.209 30.1162 106.15 30.7414 103.659 30.7414C100.643 30.7414 98.2701 29.7646 96.5389 27.8117C95.0378 26.092 94.1982 23.8676 94.0189 21.1384H98.4277ZM74.0169 9.72757C76.6922 9.72757 78.7244 10.3787 80.1143 11.6807C81.5303 12.9827 82.2382 14.9227 82.2382 17.5006V24.9215C82.2382 27.0567 82.4086 28.8014 82.7498 30.1554H78.6983C78.5374 29.4491 78.447 28.6529 78.4272 27.7671L78.4229 27.382H78.3443C76.8754 29.5171 74.6331 30.5851 71.6175 30.5851C69.5717 30.5851 67.9328 30.0381 66.7 28.9445C65.4676 27.8248 64.851 26.4057 64.851 24.6871C64.851 22.9946 65.4284 21.6406 66.5822 20.6251C67.7624 19.6096 69.7421 18.8803 72.5219 18.4376C74.2001 18.1511 75.9965 17.9558 77.9113 17.8517V17.0709C77.9113 14.3367 76.6132 12.9693 74.0169 12.9693C72.8101 12.9693 71.866 13.2819 71.1845 13.9068C70.5026 14.5317 70.1358 15.3783 70.0833 16.4459H65.6773C65.7824 14.4669 66.5429 12.8525 67.9593 11.6026C69.4013 10.3527 71.4207 9.72757 74.0169 9.72757ZM90.3143 10.3135H94.2087V13.7115H90.3143V23.6325C90.3143 24.7521 90.5234 25.5596 90.9437 26.0543C91.363 26.523 92.0577 26.7574 93.0284 26.7575C93.6053 26.7575 94.0638 26.6923 94.405 26.5621V30.0382C93.592 30.2726 92.7534 30.3898 91.8878 30.3898C89.7639 30.3898 88.2159 29.9209 87.2457 28.9835C86.3021 28.0201 85.8297 26.4577 85.8297 24.2965V13.7115H82.4862V10.3135H85.8297V5.35303H90.3143V10.3135ZM54.2492 18.3985C55.1148 21.0285 55.9671 23.9192 56.8062 27.0699H56.8848C57.7238 23.9192 58.5766 21.0285 59.4422 18.3985L62.038 10.3135H66.7189L59.7569 30.1554H53.9345L46.972 10.3135H51.6535L54.2492 18.3985ZM77.9113 20.7422C76.2067 20.8464 74.6724 21.0158 73.3089 21.2501C71.866 21.4844 70.8433 21.8361 70.2409 22.3048C69.664 22.7734 69.3753 23.4633 69.3753 24.3746C69.3753 25.2599 69.6767 25.9762 70.2801 26.5231C70.9096 27.0438 71.7874 27.3043 72.9157 27.3043C74.4362 27.3043 75.6425 26.8614 76.5346 25.9762C77.0585 25.4294 77.4125 24.8564 77.5966 24.2575C77.8058 23.6325 77.9113 22.7864 77.9113 21.7188V20.7422ZM38.7645 9.72757C41.0199 9.72757 42.9343 10.3397 44.5078 11.5635C46.1075 12.7613 47.1829 14.4018 47.7335 16.4849C48.1008 17.6567 48.2839 19.2061 48.2839 21.1329H33.6919V18.2032H43.7998C43.6424 16.5107 43.1047 15.2218 42.1868 14.3365C41.2952 13.4513 40.1544 13.0084 38.7645 13.0084C37.3747 13.0084 36.2208 13.4512 35.303 14.3365C34.4115 15.2217 33.8736 16.5105 33.69 18.2028H29.2778C29.5584 16.0062 30.3731 14.1447 31.7235 12.6182C33.4543 10.6913 35.8012 9.72762 38.7645 9.72757ZM103.791 9.7294C105.955 9.76644 107.799 10.3779 109.324 11.5635C110.923 12.7613 111.999 14.4018 112.549 16.4849C112.916 17.6567 113.1 19.206 113.1 21.1329H98.5058V18.2028H94.0932C94.3738 16.0062 95.1883 14.1447 96.5389 12.6182C98.2701 10.6913 100.617 9.72757 103.58 9.72757L103.791 9.7294ZM103.58 13.0084C102.191 13.0084 101.036 13.4512 100.119 14.3365C99.227 15.2218 98.6894 16.5103 98.5058 18.2028L108.616 18.2032C108.458 16.5107 107.92 15.2218 107.003 14.3365C106.11 13.4512 104.97 13.0084 103.58 13.0084Z" fill="white"/>
<path d="M27.4486 5.17651H23.1215L23.1893 30.5553H27.5164L27.4486 5.17651Z" fill="white" stroke="white" stroke-width="0.1"/>
<path d="M19 8H22.9H28.75H32L25.5 1L19 8Z" fill="url(#paint0_linear_96_372)"/>
<path d="M6.63659 21.1384C6.716 23.2707 7.22726 24.8574 8.17049 25.898C9.1408 26.9395 10.3735 27.4601 11.8682 27.4601C13.1269 27.4601 14.1498 27.161 14.9365 26.5621C15.7495 25.9632 16.2606 25.1688 16.4704 24.1793H21.0731C20.6797 26.0541 19.67 27.6165 18.0441 28.8663C16.4182 30.1162 14.3595 30.7413 11.8682 30.7413C8.85245 30.7413 6.47905 29.7646 4.74822 27.8116C3.24719 26.092 2.40734 23.8676 2.22807 21.1384H6.63659ZM11.7892 9.72754C14.0445 9.72754 15.959 10.3396 17.5325 11.5635C19.1322 12.7613 20.2076 14.4018 20.7584 16.4849C21.1255 17.6566 21.3088 19.206 21.3088 21.1329H6.63844L6.72258 18.2032H16.8245C16.6671 16.5107 16.1293 15.2218 15.2115 14.3364C14.3199 13.4512 13.1791 13.0083 11.7892 13.0083C10.3994 13.0084 9.24553 13.4512 8.32766 14.3364C7.43705 15.2208 6.89929 16.5079 6.7152 18.1977H2.30294C2.58413 16.0033 3.39883 14.1435 4.74822 12.6182C6.479 10.6913 8.82585 9.72759 11.7892 9.72754Z" fill="white"/>
<defs>
<linearGradient id="paint0_linear_96_372" x1="25.5" y1="1" x2="25.5" y2="8" gradientUnits="userSpaceOnUse">
<stop stop-color="#BFFB4F"/>
<stop offset="1" stop-color="white"/>
</linearGradient>
</defs>
</svg>
